<svg width="162" height="165" viewBox="0 0 162 165" fill="none" xmlns="http://www.w3.org/2000/svg">
<path d="M138.392 24.0075C123.169 8.4975 102.898 0 81.3256 0C36.8774 0 0.651258 36.7125 0.651258 81.7575C0.651258 96.195 4.39598 110.22 11.397 122.595L0 165L42.7387 153.615C54.5427 160.133 67.8121 163.598 81.3256 163.598C125.774 163.598 162 126.885 162 81.84C162 59.9775 153.615 39.435 138.392 24.0075ZM81.3256 149.738C69.2774 149.738 57.4734 146.438 47.1347 140.25L44.6925 138.765L19.2935 145.53L26.0503 120.45L24.4221 117.893C17.7467 107.085 14.1648 94.545 14.1648 81.7575C14.1648 44.3025 44.2854 13.7775 81.2442 13.7775C99.1538 13.7775 116.005 20.8725 128.623 33.7425C141.323 46.6125 148.242 63.69 148.242 81.84C148.405 119.295 118.284 149.738 81.3256 149.738ZM118.122 98.9175C116.086 97.9275 106.155 92.9775 104.364 92.235C102.491 91.575 101.189 91.245 99.805 93.225C98.4211 95.2875 94.595 99.9075 93.4553 101.228C92.3156 102.63 91.0945 102.795 89.0593 101.722C87.0241 100.732 80.5116 98.505 72.8593 91.575C66.8352 86.13 62.8462 79.4475 61.6251 77.385C60.4854 75.3225 61.4623 74.25 62.5206 73.1775C63.4161 72.27 64.5558 70.785 65.5327 69.63C66.5095 68.475 66.9166 67.5675 67.5678 66.2475C68.2191 64.845 67.8935 63.69 67.405 62.7C66.9166 61.71 62.8462 51.645 61.2181 47.52C59.5899 43.56 57.8804 44.055 56.6593 43.9725C55.4382 43.9725 54.1357 43.9725 52.7518 43.9725C51.3678 43.9725 49.2513 44.4675 47.3789 46.53C45.5879 48.5925 40.3779 53.5425 40.3779 63.6075C40.3779 73.6725 47.6231 83.4075 48.6 84.7275C49.5769 86.13 62.8462 106.755 83.0352 115.583C87.8382 117.728 91.5829 118.965 94.5136 119.873C99.3166 121.44 103.713 121.192 107.213 120.697C111.121 120.12 119.18 115.747 120.808 110.963C122.518 106.177 122.518 102.135 121.948 101.228C121.378 100.32 120.157 99.9075 118.122 98.9175Z" fill="white"/>
</svg>
